%TF.GenerationSoftware,KiCad,Pcbnew,9.0.8-9.0.8~ubuntu24.04.1*%
%TF.CreationDate,2026-04-02T19:36:23-04:00*%
%TF.ProjectId,amp,616d702e-6b69-4636-9164-5f7063625858,rev?*%
%TF.SameCoordinates,Original*%
%TF.FileFunction,Copper,L1,Top*%
%TF.FilePolarity,Positive*%
%FSLAX46Y46*%
G04 Gerber Fmt 4.6, Leading zero omitted, Abs format (unit mm)*
G04 Created by KiCad (PCBNEW 9.0.8-9.0.8~ubuntu24.04.1) date 2026-04-02 19:36:23*
%MOMM*%
%LPD*%
G01*
G04 APERTURE LIST*
G04 Aperture macros list*
%AMRoundRect*
0 Rectangle with rounded corners*
0 $1 Rounding radius*
0 $2 $3 $4 $5 $6 $7 $8 $9 X,Y pos of 4 corners*
0 Add a 4 corners polygon primitive as box body*
4,1,4,$2,$3,$4,$5,$6,$7,$8,$9,$2,$3,0*
0 Add four circle primitives for the rounded corners*
1,1,$1+$1,$2,$3*
1,1,$1+$1,$4,$5*
1,1,$1+$1,$6,$7*
1,1,$1+$1,$8,$9*
0 Add four rect primitives between the rounded corners*
20,1,$1+$1,$2,$3,$4,$5,0*
20,1,$1+$1,$4,$5,$6,$7,0*
20,1,$1+$1,$6,$7,$8,$9,0*
20,1,$1+$1,$8,$9,$2,$3,0*%
G04 Aperture macros list end*
%TA.AperFunction,ComponentPad*%
%ADD10C,1.524000*%
%TD*%
%TA.AperFunction,ComponentPad*%
%ADD11R,2.400000X2.400000*%
%TD*%
%TA.AperFunction,ComponentPad*%
%ADD12C,2.400000*%
%TD*%
%TA.AperFunction,ComponentPad*%
%ADD13C,1.905000*%
%TD*%
%TA.AperFunction,ComponentPad*%
%ADD14C,2.600000*%
%TD*%
%TA.AperFunction,ComponentPad*%
%ADD15C,5.000000*%
%TD*%
%TA.AperFunction,ComponentPad*%
%ADD16C,6.350000*%
%TD*%
%TA.AperFunction,ComponentPad*%
%ADD17C,1.016000*%
%TD*%
%TA.AperFunction,ComponentPad*%
%ADD18O,2.400000X2.400000*%
%TD*%
%TA.AperFunction,ComponentPad*%
%ADD19O,3.000000X1.800000*%
%TD*%
%TA.AperFunction,ComponentPad*%
%ADD20C,2.540000*%
%TD*%
%TA.AperFunction,ComponentPad*%
%ADD21C,6.985000*%
%TD*%
%TA.AperFunction,ComponentPad*%
%ADD22O,25.400000X7.620000*%
%TD*%
%TA.AperFunction,ComponentPad*%
%ADD23O,4.000000X4.000000*%
%TD*%
%TA.AperFunction,ComponentPad*%
%ADD24C,12.000000*%
%TD*%
%TA.AperFunction,ComponentPad*%
%ADD25RoundRect,0.250000X1.330000X1.800000X-1.330000X1.800000X-1.330000X-1.800000X1.330000X-1.800000X0*%
%TD*%
%TA.AperFunction,ComponentPad*%
%ADD26O,3.160000X4.100000*%
%TD*%
%TA.AperFunction,ComponentPad*%
%ADD27O,1.500000X3.000000*%
%TD*%
%TA.AperFunction,ComponentPad*%
%ADD28R,1.700000X1.700000*%
%TD*%
%TA.AperFunction,ComponentPad*%
%ADD29O,1.700000X1.700000*%
%TD*%
%TA.AperFunction,ComponentPad*%
%ADD30C,6.858000*%
%TD*%
%TA.AperFunction,ComponentPad*%
%ADD31C,1.600000*%
%TD*%
%TA.AperFunction,ComponentPad*%
%ADD32R,1.600000X1.600000*%
%TD*%
%TA.AperFunction,ViaPad*%
%ADD33C,0.800000*%
%TD*%
%TA.AperFunction,Conductor*%
%ADD34C,0.635000*%
%TD*%
%TA.AperFunction,Conductor*%
%ADD35C,2.540000*%
%TD*%
%TA.AperFunction,Conductor*%
%ADD36C,1.905000*%
%TD*%
G04 APERTURE END LIST*
D10*
%TO.P,C5,1*%
%TO.N,Net-(C5-Pad1)*%
X133350000Y-236220000D03*
%TO.P,C5,2*%
%TO.N,Net-(U1B-A)*%
X133350000Y-218220000D03*
%TD*%
D11*
%TO.P,C6,1*%
%TO.N,B+*%
X52070000Y-195580000D03*
D12*
%TO.P,C6,2*%
%TO.N,Earth*%
X52070000Y-203080000D03*
%TD*%
D13*
%TO.P,F1,1*%
%TO.N,Net-(SW1-A)*%
X96520000Y-40640000D03*
%TO.P,F1,2*%
%TO.N,Net-(J2-Pin_1)*%
X96520000Y-25400000D03*
%TO.P,F1,3*%
%TO.N,N/C*%
X96520000Y-7620000D03*
%TD*%
D14*
%TO.P,J2,1,Pin_1*%
%TO.N,Net-(J2-Pin_1)*%
X60612000Y-17272000D03*
%TO.P,J2,2,Pin_2*%
%TO.N,GNDPWR*%
X51562000Y-17272000D03*
%TO.P,J2,3,Pin_3*%
%TO.N,Net-(J2-Pin_3)*%
X42512000Y-17272000D03*
D15*
%TO.P,J2,4,Pin_4*%
%TO.N,GNDPWR*%
X71562000Y-7572000D03*
%TO.P,J2,5,Pin_5*%
X31562000Y-7572000D03*
%TD*%
D16*
%TO.P,LS1,1,1*%
%TO.N,Net-(J4-Pin_2)*%
X185420000Y-10668000D03*
%TO.P,LS1,2,2*%
%TO.N,Earth*%
X166370000Y-10668000D03*
%TD*%
D17*
%TO.P,NE1,1*%
%TO.N,Net-(J2-Pin_3)*%
X51054000Y-268986000D03*
%TO.P,NE1,2*%
%TO.N,Net-(NE1-Pad2)*%
X53594000Y-268986000D03*
%TD*%
D12*
%TO.P,R2,1*%
%TO.N,/B+PRE_L*%
X182626000Y-173736000D03*
D18*
%TO.P,R2,2*%
%TO.N,Net-(U1A-A)*%
X182626000Y-188976000D03*
%TD*%
D12*
%TO.P,R4,1*%
%TO.N,/B+PRE_L*%
X160401000Y-173736000D03*
D18*
%TO.P,R4,2*%
%TO.N,Net-(U1B-A)*%
X160401000Y-188976000D03*
%TD*%
D12*
%TO.P,R8,1*%
%TO.N,Net-(U1B-G)*%
X171831000Y-186436000D03*
D18*
%TO.P,R8,2*%
%TO.N,Earth*%
X171831000Y-173736000D03*
%TD*%
D10*
%TO.P,R11,1*%
%TO.N,B+*%
X18796000Y-251206000D03*
%TO.P,R11,2*%
%TO.N,Net-(U2-K)*%
X18796000Y-196206000D03*
%TD*%
D19*
%TO.P,SW1,1,A*%
%TO.N,Net-(SW1-A)*%
X78486000Y-263144000D03*
%TO.P,SW1,2,B*%
%TO.N,Net-(SW1-B)*%
X78486000Y-260604000D03*
%TO.P,SW1,3*%
%TO.N,N/C*%
X78486000Y-258064000D03*
%TO.P,SW1,4,G1*%
%TO.N,Earth*%
X75946000Y-275844000D03*
%TO.P,SW1,5,G2*%
%TO.N,unconnected-(SW1-G2-Pad5)*%
X81026000Y-275844000D03*
%TD*%
D20*
%TO.P,T1,1,AA*%
%TO.N,Net-(T1-AA)*%
X38100000Y-63881000D03*
%TO.P,T1,2,AC*%
%TO.N,Net-(T1-AC)*%
X31750000Y-63881000D03*
%TO.P,T1,3,AB*%
%TO.N,Net-(J2-Pin_3)*%
X25400000Y-63881000D03*
%TO.P,T1,4,SA*%
%TO.N,Net-(U2-K)*%
X27940000Y-175641000D03*
%TO.P,T1,5,SC*%
%TO.N,unconnected-(T1-SC-Pad5)*%
X50800000Y-63881000D03*
%TO.P,T1,6,SB*%
%TO.N,Net-(U2-F2)*%
X34290000Y-175641000D03*
%TO.P,T1,7,SA*%
%TO.N,Net-(U2-A2)*%
X74930000Y-63881000D03*
%TO.P,T1,8,SC*%
%TO.N,Earth*%
X68580000Y-63881000D03*
%TO.P,T1,9,SB*%
%TO.N,Net-(U2-A1)*%
X62230000Y-63881000D03*
%TO.P,T1,10,FA*%
%TO.N,Net-(T1-FA)*%
X76200000Y-175641000D03*
%TO.P,T1,11,FC*%
%TO.N,Earth*%
X69850000Y-175641000D03*
%TO.P,T1,12,FB*%
%TO.N,Net-(T1-FB)*%
X63500000Y-175641000D03*
D21*
%TO.P,T1,M1*%
%TO.N,N/C*%
X82550000Y-153898600D03*
%TO.P,T1,M2*%
X19050000Y-153898600D03*
%TO.P,T1,M3*%
X82550000Y-85623400D03*
%TO.P,T1,M4*%
X19050000Y-85623400D03*
D22*
%TO.P,T1,S1*%
X50800000Y-165481000D03*
%TO.P,T1,S2*%
X50800000Y-74041000D03*
%TD*%
D23*
%TO.P,U2,1*%
%TO.N,N/C*%
X51181000Y-224236000D03*
%TO.P,U2,2,K*%
%TO.N,Net-(U2-K)*%
X41988612Y-228043612D03*
%TO.P,U2,3*%
%TO.N,N/C*%
X38181000Y-237236000D03*
%TO.P,U2,4,A1*%
%TO.N,Net-(U2-A1)*%
X41988612Y-246428388D03*
%TO.P,U2,5*%
%TO.N,N/C*%
X51181000Y-250236000D03*
%TO.P,U2,6,A2*%
%TO.N,Net-(U2-A2)*%
X60373388Y-246428388D03*
%TO.P,U2,7*%
%TO.N,N/C*%
X64181000Y-237236000D03*
%TO.P,U2,8,F2*%
%TO.N,Net-(U2-F2)*%
X60373388Y-228043612D03*
D24*
%TO.P,U2,9*%
%TO.N,N/C*%
X51181000Y-237236000D03*
%TD*%
D23*
%TO.P,U3,1*%
%TO.N,N/C*%
X235250000Y-186436000D03*
%TO.P,U3,2,F1*%
%TO.N,Net-(T1-FA)*%
X231442388Y-177243612D03*
%TO.P,U3,3,A*%
%TO.N,Net-(T2-BLU)*%
X222250000Y-173436000D03*
%TO.P,U3,4,G2*%
%TO.N,Net-(T2-BLU{slash}YEL)*%
X213057612Y-177243612D03*
%TO.P,U3,5,G1*%
%TO.N,Net-(U3A-G1)*%
X209250000Y-186436000D03*
%TO.P,U3,6*%
%TO.N,N/C*%
X213057612Y-195628388D03*
%TO.P,U3,7,F2*%
%TO.N,Net-(T1-FB)*%
X222250000Y-199436000D03*
%TO.P,U3,8,F1*%
%TO.N,Net-(U3A-F1)*%
X231442388Y-195628388D03*
D24*
%TO.P,U3,9*%
%TO.N,N/C*%
X222250000Y-186436000D03*
%TD*%
D23*
%TO.P,U4,1*%
%TO.N,N/C*%
X146350000Y-186436000D03*
%TO.P,U4,2,F1*%
%TO.N,Net-(T1-FA)*%
X142542388Y-177243612D03*
%TO.P,U4,3,A*%
%TO.N,Net-(T2-BRN)*%
X133350000Y-173436000D03*
%TO.P,U4,4,G2*%
%TO.N,Net-(T2-BRN{slash}YEL)*%
X124157612Y-177243612D03*
%TO.P,U4,5,G1*%
%TO.N,Net-(U4A-G1)*%
X120350000Y-186436000D03*
%TO.P,U4,6*%
%TO.N,N/C*%
X124157612Y-195628388D03*
%TO.P,U4,7,F2*%
%TO.N,Net-(T1-FB)*%
X133350000Y-199436000D03*
%TO.P,U4,8,F1*%
%TO.N,Net-(U3A-F1)*%
X142542388Y-195628388D03*
D24*
%TO.P,U4,9*%
%TO.N,N/C*%
X133350000Y-186436000D03*
%TD*%
D12*
%TO.P,R14,1*%
%TO.N,Net-(C5-Pad1)*%
X121031000Y-227076000D03*
D18*
%TO.P,R14,2*%
%TO.N,Net-(U4A-G1)*%
X121031000Y-214376000D03*
%TD*%
D12*
%TO.P,R3,1*%
%TO.N,Net-(U1B-K)*%
X179324000Y-215138000D03*
D18*
%TO.P,R3,2*%
%TO.N,Net-(U1A-K)*%
X194564000Y-215138000D03*
%TD*%
D25*
%TO.P,JP1,1,1*%
%TO.N,Net-(T1-AA)*%
X39116000Y-42770200D03*
D26*
%TO.P,JP1,2,2*%
%TO.N,Net-(SW1-B)*%
X35156000Y-42770200D03*
%TO.P,JP1,3,3*%
%TO.N,Net-(T1-AC)*%
X31196000Y-42770200D03*
%TD*%
D16*
%TO.P,H1,1*%
%TO.N,N/C*%
X5080000Y-274320000D03*
%TD*%
%TO.P,H2,1*%
%TO.N,N/C*%
X401320000Y-274320000D03*
%TD*%
%TO.P,H4,1*%
%TO.N,N/C*%
X401320000Y-5080000D03*
%TD*%
%TO.P,H3,1*%
%TO.N,N/C*%
X5080000Y-5080000D03*
%TD*%
D10*
%TO.P,R26,1*%
%TO.N,B+*%
X266700000Y-58420000D03*
%TO.P,R26,2*%
%TO.N,/B+PP_R*%
X266700000Y-113420000D03*
%TD*%
D27*
%TO.P,J1,1,In*%
%TO.N,Net-(J1-In)*%
X182118000Y-274066000D03*
D19*
%TO.P,J1,2,Ext*%
%TO.N,Earth*%
X178368000Y-270366000D03*
D27*
%TO.P,J1,3*%
%TO.N,N/C*%
X174618000Y-274066000D03*
%TD*%
D23*
%TO.P,U1,1,G*%
%TO.N,Net-(J1-In)*%
X177800000Y-250236000D03*
%TO.P,U1,2,A*%
%TO.N,Net-(U1A-A)*%
X186992388Y-246428388D03*
%TO.P,U1,3,K*%
%TO.N,Net-(U1A-K)*%
X190800000Y-237236000D03*
%TO.P,U1,4,G*%
%TO.N,Net-(U1B-G)*%
X186992388Y-228043612D03*
%TO.P,U1,5,A*%
%TO.N,Net-(U1B-A)*%
X177800000Y-224236000D03*
%TO.P,U1,6,K*%
%TO.N,Net-(U1B-K)*%
X168607612Y-228043612D03*
%TO.P,U1,7,F1*%
%TO.N,Net-(T1-FA)*%
X164800000Y-237236000D03*
%TO.P,U1,8,F2*%
%TO.N,Net-(T1-FB)*%
X168607612Y-246428388D03*
D24*
%TO.P,U1,9*%
%TO.N,N/C*%
X177800000Y-237236000D03*
%TD*%
D10*
%TO.P,C4,1*%
%TO.N,Net-(C4-Pad1)*%
X220980000Y-218440000D03*
%TO.P,C4,2*%
%TO.N,Net-(U1A-A)*%
X220980000Y-236440000D03*
%TD*%
D16*
%TO.P,LS2,1,1*%
%TO.N,Net-(J5-Pin_2)*%
X339090000Y-10160000D03*
%TO.P,LS2,2,2*%
%TO.N,Earth*%
X320040000Y-10160000D03*
%TD*%
D11*
%TO.P,C15,1*%
%TO.N,/B+PP_R*%
X266700000Y-146050000D03*
D12*
%TO.P,C15,2*%
%TO.N,Earth*%
X266700000Y-138550000D03*
%TD*%
D28*
%TO.P,J5,1,Pin_1*%
%TO.N,Net-(J5-Pin_1)*%
X332740000Y-30480000D03*
D29*
%TO.P,J5,2,Pin_2*%
%TO.N,Net-(J5-Pin_2)*%
X332740000Y-33020000D03*
%TO.P,J5,3,Pin_3*%
%TO.N,Net-(J5-Pin_3)*%
X330200000Y-30480000D03*
%TO.P,J5,4,Pin_4*%
%TO.N,Net-(J5-Pin_2)*%
X330200000Y-33020000D03*
%TO.P,J5,5,Pin_5*%
%TO.N,Net-(J5-Pin_5)*%
X327660000Y-30480000D03*
%TO.P,J5,6,Pin_6*%
%TO.N,Net-(J5-Pin_2)*%
X327660000Y-33020000D03*
%TD*%
D20*
%TO.P,T3,1,BLU*%
%TO.N,Net-(T3-BLU)*%
X345440000Y-133096000D03*
%TO.P,T3,2,BLU/YEL*%
%TO.N,Net-(T3-BLU{slash}YEL)*%
X337820000Y-133096000D03*
%TO.P,T3,3,RED*%
%TO.N,/B+PP_R*%
X330200000Y-133096000D03*
%TO.P,T3,4,BRN/YEL*%
%TO.N,Net-(T3-BRN{slash}YEL)*%
X322580000Y-133096000D03*
%TO.P,T3,5,BRN*%
%TO.N,Net-(T3-BRN)*%
X314960000Y-133096000D03*
%TO.P,T3,6,WHT*%
%TO.N,Net-(J5-Pin_1)*%
X342900000Y-49276000D03*
%TO.P,T3,7,YEL*%
%TO.N,Net-(J5-Pin_3)*%
X335280000Y-49276000D03*
%TO.P,T3,8,GRN*%
%TO.N,Net-(J5-Pin_5)*%
X325120000Y-49276000D03*
%TO.P,T3,9,BLK*%
%TO.N,Earth*%
X317500000Y-49276000D03*
D30*
%TO.P,T3,M1*%
%TO.N,N/C*%
X355600000Y-70027800D03*
%TO.P,T3,M2*%
X355600000Y-112344200D03*
%TO.P,T3,M3*%
X304800000Y-112344200D03*
%TO.P,T3,M4*%
X304800000Y-70027800D03*
D22*
%TO.P,T3,S1*%
X330200000Y-56896000D03*
%TO.P,T3,S2*%
X330200000Y-125476000D03*
%TD*%
D28*
%TO.P,J4,1,Pin_1*%
%TO.N,Net-(J4-Pin_1)*%
X176530000Y-30480000D03*
D29*
%TO.P,J4,2,Pin_2*%
%TO.N,Net-(J4-Pin_2)*%
X176530000Y-33020000D03*
%TO.P,J4,3,Pin_3*%
%TO.N,Net-(J4-Pin_3)*%
X173990000Y-30480000D03*
%TO.P,J4,4,Pin_4*%
%TO.N,Net-(J4-Pin_2)*%
X173990000Y-33020000D03*
%TO.P,J4,5,Pin_5*%
%TO.N,Net-(J4-Pin_5)*%
X171450000Y-30480000D03*
%TO.P,J4,6,Pin_6*%
%TO.N,Net-(J4-Pin_2)*%
X171450000Y-33020000D03*
%TD*%
D11*
%TO.P,C8,1*%
%TO.N,/B+PP_L*%
X121666000Y-145796000D03*
D12*
%TO.P,C8,2*%
%TO.N,Earth*%
X121666000Y-138296000D03*
%TD*%
D20*
%TO.P,T2,1,BLU*%
%TO.N,Net-(T2-BLU)*%
X193040000Y-133096000D03*
%TO.P,T2,2,BLU/YEL*%
%TO.N,Net-(T2-BLU{slash}YEL)*%
X185420000Y-133096000D03*
%TO.P,T2,3,RED*%
%TO.N,/B+PP_L*%
X177800000Y-133096000D03*
%TO.P,T2,4,BRN/YEL*%
%TO.N,Net-(T2-BRN{slash}YEL)*%
X170180000Y-133096000D03*
%TO.P,T2,5,BRN*%
%TO.N,Net-(T2-BRN)*%
X162560000Y-133096000D03*
%TO.P,T2,6,WHT*%
%TO.N,Net-(J4-Pin_1)*%
X190500000Y-49276000D03*
%TO.P,T2,7,YEL*%
%TO.N,Net-(J4-Pin_3)*%
X182880000Y-49276000D03*
%TO.P,T2,8,GRN*%
%TO.N,Net-(J4-Pin_5)*%
X172720000Y-49276000D03*
%TO.P,T2,9,BLK*%
%TO.N,Earth*%
X165100000Y-49276000D03*
D30*
%TO.P,T2,M1*%
%TO.N,N/C*%
X203200000Y-70027800D03*
%TO.P,T2,M2*%
X203200000Y-112344200D03*
%TO.P,T2,M3*%
X152400000Y-112344200D03*
%TO.P,T2,M4*%
X152400000Y-70027800D03*
D22*
%TO.P,T2,S1*%
X177800000Y-56896000D03*
%TO.P,T2,S2*%
X177800000Y-125476000D03*
%TD*%
D10*
%TO.P,R13,1*%
%TO.N,B+*%
X121666000Y-59436000D03*
%TO.P,R13,2*%
%TO.N,/B+PP_L*%
X121666000Y-114436000D03*
%TD*%
D27*
%TO.P,J3,1,In*%
%TO.N,Net-(J3-In)*%
X455930000Y-40894000D03*
D19*
%TO.P,J3,2,Ext*%
%TO.N,Earth*%
X452180000Y-37194000D03*
D27*
%TO.P,J3,3*%
%TO.N,N/C*%
X448430000Y-40894000D03*
%TD*%
D23*
%TO.P,U6,1*%
%TO.N,N/C*%
X298750000Y-186436000D03*
%TO.P,U6,2,F1*%
%TO.N,Net-(T1-FA)*%
X294942388Y-177243612D03*
%TO.P,U6,3,A*%
%TO.N,Net-(T3-BLU)*%
X285750000Y-173436000D03*
%TO.P,U6,4,G2*%
%TO.N,Net-(T3-BLU{slash}YEL)*%
X276557612Y-177243612D03*
%TO.P,U6,5,G1*%
%TO.N,Net-(U6A-G1)*%
X272750000Y-186436000D03*
%TO.P,U6,6*%
%TO.N,N/C*%
X276557612Y-195628388D03*
%TO.P,U6,7,F2*%
%TO.N,Net-(T1-FB)*%
X285750000Y-199436000D03*
%TO.P,U6,8,F1*%
%TO.N,Net-(U6A-F1)*%
X294942388Y-195628388D03*
D24*
%TO.P,U6,9*%
%TO.N,N/C*%
X285750000Y-186436000D03*
%TD*%
D10*
%TO.P,C13,1*%
%TO.N,Net-(C13-Pad1)*%
X426487001Y-260858001D03*
%TO.P,C13,2*%
%TO.N,Net-(U5B-A)*%
X444487001Y-260858001D03*
%TD*%
D23*
%TO.P,U7,1*%
%TO.N,N/C*%
X386380000Y-186436000D03*
%TO.P,U7,2,F1*%
%TO.N,Net-(T1-FA)*%
X382572388Y-177243612D03*
%TO.P,U7,3,A*%
%TO.N,Net-(T3-BRN)*%
X373380000Y-173436000D03*
%TO.P,U7,4,G2*%
%TO.N,Net-(T3-BRN{slash}YEL)*%
X364187612Y-177243612D03*
%TO.P,U7,5,G1*%
%TO.N,Net-(U7A-G1)*%
X360380000Y-186436000D03*
%TO.P,U7,6*%
%TO.N,N/C*%
X364187612Y-195628388D03*
%TO.P,U7,7,F2*%
%TO.N,Net-(T1-FB)*%
X373380000Y-199436000D03*
%TO.P,U7,8,F1*%
%TO.N,Net-(U6A-F1)*%
X382572388Y-195628388D03*
D24*
%TO.P,U7,9*%
%TO.N,N/C*%
X373380000Y-186436000D03*
%TD*%
D12*
%TO.P,R22,1*%
%TO.N,Net-(U5B-G)*%
X426720000Y-198120000D03*
D18*
%TO.P,R22,2*%
%TO.N,Earth*%
X439420000Y-198120000D03*
%TD*%
D12*
%TO.P,R17,1*%
%TO.N,Net-(U5B-K)*%
X424180000Y-152400000D03*
D18*
%TO.P,R17,2*%
%TO.N,Net-(U5A-K)*%
X439420000Y-152400000D03*
%TD*%
D31*
%TO.P,C9,1*%
%TO.N,Net-(SW3-B)*%
X419100000Y-86360000D03*
%TO.P,C9,2*%
%TO.N,Net-(U5A-K)*%
X424100000Y-86360000D03*
%TD*%
D12*
%TO.P,R15,1*%
%TO.N,Net-(J3-In)*%
X445770000Y-21590000D03*
D18*
%TO.P,R15,2*%
%TO.N,Earth*%
X458470000Y-21590000D03*
%TD*%
D12*
%TO.P,R16,1*%
%TO.N,/B+PRE_R*%
X418427001Y-34188001D03*
D18*
%TO.P,R16,2*%
%TO.N,Net-(U5A-A)*%
X433667001Y-34188001D03*
%TD*%
D12*
%TO.P,R23,1*%
%TO.N,Net-(C12-Pad1)*%
X426720000Y-167640000D03*
D18*
%TO.P,R23,2*%
%TO.N,Net-(U5B-G)*%
X441960000Y-167640000D03*
%TD*%
D32*
%TO.P,C10,1*%
%TO.N,Net-(U5B-K)*%
X421640000Y-111760000D03*
D31*
%TO.P,C10,2*%
%TO.N,Earth*%
X423640000Y-111760000D03*
%TD*%
D12*
%TO.P,R20,1*%
%TO.N,/B+PP_R*%
X457200000Y-198120000D03*
D18*
%TO.P,R20,2*%
%TO.N,/B+PRE_R*%
X472440000Y-198120000D03*
%TD*%
D12*
%TO.P,R25,1*%
%TO.N,Net-(U6A-F1)*%
X455537001Y-131198001D03*
D18*
%TO.P,R25,2*%
%TO.N,Earth*%
X470777001Y-131198001D03*
%TD*%
D12*
%TO.P,R21,1*%
%TO.N,Net-(C13-Pad1)*%
X424180000Y-185420000D03*
D18*
%TO.P,R21,2*%
%TO.N,Net-(U5B-G)*%
X439420000Y-185420000D03*
%TD*%
D11*
%TO.P,C11,1*%
%TO.N,/B+PRE_R*%
X457200000Y-101600000D03*
D12*
%TO.P,C11,2*%
%TO.N,Earth*%
X462200000Y-101600000D03*
%TD*%
%TO.P,R24,1*%
%TO.N,Net-(U6A-G1)*%
X418427001Y-44938001D03*
D18*
%TO.P,R24,2*%
%TO.N,Net-(C12-Pad1)*%
X431127001Y-44938001D03*
%TD*%
D12*
%TO.P,R27,1*%
%TO.N,Net-(C13-Pad1)*%
X457200000Y-147320000D03*
D18*
%TO.P,R27,2*%
%TO.N,Net-(U7A-G1)*%
X469900000Y-147320000D03*
%TD*%
D12*
%TO.P,R19,1*%
%TO.N,Net-(SW3-B)*%
X418427001Y-50088001D03*
D18*
%TO.P,R19,2*%
%TO.N,Net-(U5A-K)*%
X431127001Y-50088001D03*
%TD*%
D12*
%TO.P,R18,1*%
%TO.N,/B+PRE_R*%
X421640000Y-132080000D03*
D18*
%TO.P,R18,2*%
%TO.N,Net-(U5B-A)*%
X436880000Y-132080000D03*
%TD*%
D10*
%TO.P,C12,1*%
%TO.N,Net-(C12-Pad1)*%
X426487001Y-245708001D03*
%TO.P,C12,2*%
%TO.N,Net-(U5A-A)*%
X444487001Y-245708001D03*
%TD*%
D11*
%TO.P,C14,1*%
%TO.N,Net-(U6A-F1)*%
X437519083Y-108278001D03*
D12*
%TO.P,C14,2*%
%TO.N,Earth*%
X442519083Y-108278001D03*
%TD*%
D19*
%TO.P,SW3,1,A*%
%TO.N,Net-(J5-Pin_1)*%
X363220000Y-17780000D03*
%TO.P,SW3,2,B*%
%TO.N,Net-(SW3-B)*%
X363220000Y-20320000D03*
%TO.P,SW3,3,C*%
%TO.N,Earth*%
X363220000Y-22860000D03*
%TO.P,SW3,4*%
%TO.N,N/C*%
X365760000Y-5080000D03*
%TO.P,SW3,5*%
X360680000Y-5080000D03*
%TD*%
D12*
%TO.P,R28,1*%
%TO.N,Net-(NE1-Pad2)*%
X53848000Y-260096000D03*
D18*
%TO.P,R28,2*%
%TO.N,Net-(SW1-B)*%
X69088000Y-260096000D03*
%TD*%
D23*
%TO.P,U5,1,G*%
%TO.N,Net-(J3-In)*%
X330200000Y-250236000D03*
%TO.P,U5,2,A*%
%TO.N,Net-(U5A-A)*%
X339392388Y-246428388D03*
%TO.P,U5,3,K*%
%TO.N,Net-(U5A-K)*%
X343200000Y-237236000D03*
%TO.P,U5,4,G*%
%TO.N,Net-(U5B-G)*%
X339392388Y-228043612D03*
%TO.P,U5,5,A*%
%TO.N,Net-(U5B-A)*%
X330200000Y-224236000D03*
%TO.P,U5,6,K*%
%TO.N,Net-(U5B-K)*%
X321007612Y-228043612D03*
%TO.P,U5,7,F1*%
%TO.N,Net-(T1-FA)*%
X317200000Y-237236000D03*
%TO.P,U5,8,F2*%
%TO.N,Net-(T1-FB)*%
X321007612Y-246428388D03*
D24*
%TO.P,U5,9*%
%TO.N,N/C*%
X330200000Y-237236000D03*
%TD*%
D11*
%TO.P,C3,1*%
%TO.N,/B+PRE_L*%
X180086000Y-159131000D03*
D12*
%TO.P,C3,2*%
%TO.N,Earth*%
X175086000Y-159131000D03*
%TD*%
D11*
%TO.P,C7,1*%
%TO.N,Net-(U3A-F1)*%
X175260000Y-198882000D03*
D12*
%TO.P,C7,2*%
%TO.N,Earth*%
X175260000Y-203882000D03*
%TD*%
%TO.P,R12,1*%
%TO.N,Net-(U3A-F1)*%
X160528000Y-197104000D03*
D18*
%TO.P,R12,2*%
%TO.N,Earth*%
X160528000Y-212344000D03*
%TD*%
D12*
%TO.P,R6,1*%
%TO.N,/B+PP_L*%
X160401000Y-150876000D03*
D18*
%TO.P,R6,2*%
%TO.N,/B+PRE_L*%
X160401000Y-166116000D03*
%TD*%
D12*
%TO.P,R9,1*%
%TO.N,Net-(C4-Pad1)*%
X204216000Y-213106000D03*
D18*
%TO.P,R9,2*%
%TO.N,Net-(U1B-G)*%
X204216000Y-228346000D03*
%TD*%
D12*
%TO.P,R10,1*%
%TO.N,Net-(U3A-G1)*%
X192786000Y-173736000D03*
D18*
%TO.P,R10,2*%
%TO.N,Net-(C4-Pad1)*%
X192786000Y-186436000D03*
%TD*%
D12*
%TO.P,R7,1*%
%TO.N,Net-(C5-Pad1)*%
X149606000Y-228346000D03*
D18*
%TO.P,R7,2*%
%TO.N,Net-(U1B-G)*%
X149606000Y-213106000D03*
%TD*%
D12*
%TO.P,R1,1*%
%TO.N,Net-(J1-In)*%
X184404000Y-261620000D03*
D18*
%TO.P,R1,2*%
%TO.N,Earth*%
X171704000Y-261620000D03*
%TD*%
D32*
%TO.P,C2,1*%
%TO.N,Net-(U1B-K)*%
X189484000Y-201930000D03*
D31*
%TO.P,C2,2*%
%TO.N,Earth*%
X189484000Y-203930000D03*
%TD*%
%TO.P,C1,1*%
%TO.N,Net-(SW2-B)*%
X244221000Y-215646000D03*
%TO.P,C1,2*%
%TO.N,Net-(U1A-K)*%
X244221000Y-220646000D03*
%TD*%
D12*
%TO.P,R5,1*%
%TO.N,Net-(SW2-B)*%
X235331000Y-211836000D03*
D18*
%TO.P,R5,2*%
%TO.N,Net-(U1A-K)*%
X235331000Y-224536000D03*
%TD*%
D19*
%TO.P,SW2,1,A*%
%TO.N,Net-(J4-Pin_1)*%
X209550000Y-17780000D03*
%TO.P,SW2,2,B*%
%TO.N,Net-(SW2-B)*%
X209550000Y-20320000D03*
%TO.P,SW2,3,C*%
%TO.N,Earth*%
X209550000Y-22860000D03*
%TO.P,SW2,4*%
%TO.N,N/C*%
X212090000Y-5080000D03*
%TO.P,SW2,5*%
X207010000Y-5080000D03*
%TD*%
D33*
%TO.N,Net-(U3A-F1)*%
X187960000Y-197485000D03*
%TO.N,Net-(T1-FA)*%
X102870000Y-202565000D03*
X231140000Y-254000000D03*
%TO.N,Net-(T1-FB)*%
X227965000Y-257810000D03*
X98425000Y-205740000D03*
%TD*%
D34*
%TO.N,Net-(U1A-K)*%
X194945000Y-233091000D02*
X194945000Y-215265000D01*
X190800000Y-237236000D02*
X194945000Y-233091000D01*
%TO.N,Net-(U1B-K)*%
X193040000Y-206375000D02*
X193040000Y-203200000D01*
X191770000Y-201930000D02*
X189230000Y-201930000D01*
X184277000Y-215138000D02*
X193040000Y-206375000D01*
X168607612Y-220012388D02*
X173355000Y-215265000D01*
X168607612Y-228043612D02*
X168607612Y-220012388D01*
X173355000Y-215265000D02*
X179705000Y-215265000D01*
X179324000Y-215138000D02*
X184277000Y-215138000D01*
X193040000Y-203200000D02*
X191770000Y-201930000D01*
%TO.N,Net-(C4-Pad1)*%
X220980000Y-218440000D02*
X209550000Y-218440000D01*
X204216000Y-213106000D02*
X204216000Y-198501000D01*
X204216000Y-198501000D02*
X192405000Y-186690000D01*
X209550000Y-218440000D02*
X204470000Y-213360000D01*
%TO.N,Net-(C5-Pad1)*%
X142240000Y-236220000D02*
X149860000Y-228600000D01*
X133350000Y-236220000D02*
X142240000Y-236220000D01*
X124206000Y-227076000D02*
X133350000Y-236220000D01*
X121031000Y-227076000D02*
X124206000Y-227076000D01*
%TO.N,Net-(U1A-A)*%
X222250000Y-213360000D02*
X224790000Y-215900000D01*
X215900000Y-213360000D02*
X222250000Y-213360000D01*
X210771612Y-246428388D02*
X220980000Y-236220000D01*
X186992388Y-246428388D02*
X210771612Y-246428388D01*
X224790000Y-233045000D02*
X220980000Y-236855000D01*
X207645000Y-205105000D02*
X215900000Y-213360000D01*
X224790000Y-215900000D02*
X224790000Y-233045000D01*
X189357000Y-182245000D02*
X197485000Y-182245000D01*
X182626000Y-188976000D02*
X189357000Y-182245000D01*
X197485000Y-182245000D02*
X207645000Y-192405000D01*
X207645000Y-192405000D02*
X207645000Y-205105000D01*
%TO.N,Net-(U1B-A)*%
X164465000Y-232410000D02*
X163195000Y-232410000D01*
X163195000Y-232410000D02*
X153670000Y-222885000D01*
X153670000Y-195707000D02*
X153670000Y-222885000D01*
X153670000Y-222885000D02*
X137795000Y-222885000D01*
X177800000Y-224236000D02*
X169626000Y-232410000D01*
X169626000Y-232410000D02*
X164465000Y-232410000D01*
X137795000Y-222885000D02*
X133350000Y-218440000D01*
X160401000Y-188976000D02*
X153670000Y-195707000D01*
D35*
%TO.N,Net-(U3A-F1)*%
X175895000Y-198755000D02*
X175260000Y-198755000D01*
X187960000Y-197485000D02*
X177165000Y-197485000D01*
X177165000Y-197485000D02*
X175895000Y-198755000D01*
D34*
%TO.N,Net-(J1-In)*%
X182118000Y-274066000D02*
X182118000Y-263652000D01*
X184404000Y-256794000D02*
X177800000Y-250190000D01*
X182118000Y-263652000D02*
X184150000Y-261620000D01*
X184404000Y-261620000D02*
X184404000Y-256794000D01*
%TO.N,Net-(U1B-G)*%
X170180000Y-184785000D02*
X172085000Y-186690000D01*
X171831000Y-186436000D02*
X176784000Y-186436000D01*
X186992388Y-217502612D02*
X186992388Y-228043612D01*
X178435000Y-188087000D02*
X178435000Y-191135000D01*
X178435000Y-191135000D02*
X180975000Y-193675000D01*
X196215000Y-195580000D02*
X196215000Y-208280000D01*
X180975000Y-193675000D02*
X194310000Y-193675000D01*
X149606000Y-213106000D02*
X149606000Y-192024000D01*
X196215000Y-208280000D02*
X186992388Y-217502612D01*
X176784000Y-186436000D02*
X178435000Y-188087000D01*
X149606000Y-192024000D02*
X156845000Y-184785000D01*
X156845000Y-184785000D02*
X170180000Y-184785000D01*
X194310000Y-193675000D02*
X196215000Y-195580000D01*
%TO.N,Net-(U3A-G1)*%
X192786000Y-173736000D02*
X197231000Y-173736000D01*
X197231000Y-173736000D02*
X209550000Y-186055000D01*
%TO.N,Net-(U4A-G1)*%
X114300000Y-192486000D02*
X114300000Y-207645000D01*
X114300000Y-207645000D02*
X121285000Y-214630000D01*
X120350000Y-186436000D02*
X114300000Y-192486000D01*
D36*
%TO.N,Net-(T1-FA)*%
X146685000Y-250825000D02*
X106045000Y-250825000D01*
X106045000Y-250825000D02*
X102870000Y-247650000D01*
X226695000Y-193675000D02*
X226695000Y-202565000D01*
X102870000Y-247650000D02*
X102870000Y-202565000D01*
X160274000Y-237236000D02*
X146685000Y-250825000D01*
X231442388Y-177243612D02*
X231442388Y-188927612D01*
X231442388Y-188927612D02*
X226695000Y-193675000D01*
X164800000Y-237236000D02*
X160274000Y-237236000D01*
X231140000Y-207010000D02*
X231140000Y-254000000D01*
X226695000Y-202565000D02*
X231140000Y-207010000D01*
%TO.N,Net-(T1-FB)*%
X103505000Y-254000000D02*
X98425000Y-248920000D01*
X98425000Y-248920000D02*
X98425000Y-205740000D01*
X148590000Y-254000000D02*
X103505000Y-254000000D01*
X222250000Y-199436000D02*
X222250000Y-203835000D01*
X222250000Y-203835000D02*
X227965000Y-209550000D01*
X156161612Y-246428388D02*
X148590000Y-254000000D01*
X227965000Y-209550000D02*
X227965000Y-257810000D01*
X168607612Y-246428388D02*
X156161612Y-246428388D01*
%TO.N,Net-(T2-BRN)*%
X162560000Y-133096000D02*
X133985000Y-161671000D01*
X133985000Y-172720000D02*
X133350000Y-173355000D01*
X133985000Y-161671000D02*
X133985000Y-172720000D01*
%TO.N,Net-(T2-BRN{slash}YEL)*%
X135255000Y-177800000D02*
X124460000Y-177800000D01*
X124460000Y-177800000D02*
X123825000Y-177165000D01*
X140970000Y-162306000D02*
X140970000Y-172085000D01*
X170180000Y-133096000D02*
X140970000Y-162306000D01*
X140970000Y-172085000D02*
X135255000Y-177800000D01*
%TO.N,Net-(T2-BLU)*%
X193040000Y-133096000D02*
X193040000Y-144780000D01*
X193040000Y-144780000D02*
X222250000Y-173990000D01*
%TO.N,Net-(T2-BLU{slash}YEL)*%
X185420000Y-149225000D02*
X213360000Y-177165000D01*
X185420000Y-133096000D02*
X185420000Y-149225000D01*
%TO.N,/B+PRE_L*%
X160401000Y-166116000D02*
X160401000Y-173736000D01*
X179324000Y-166116000D02*
X179324000Y-170434000D01*
X179324000Y-166116000D02*
X180340000Y-165100000D01*
X160401000Y-166116000D02*
X179324000Y-166116000D01*
X179324000Y-170434000D02*
X182880000Y-173990000D01*
X160401000Y-173736000D02*
X160655000Y-173990000D01*
X180340000Y-165100000D02*
X180340000Y-159385000D01*
%TO.N,/B+PP_L*%
X160401000Y-150876000D02*
X177800000Y-133477000D01*
X177800000Y-133477000D02*
X177800000Y-133350000D01*
%TD*%
M02*
