M48
; DRILL file {KiCad 9.0.8-9.0.8~ubuntu24.04.1} date 2026-04-02T19:36:31-0400
; FORMAT={-:-/ absolute / metric / decimal}
; #@! TF.CreationDate,2026-04-02T19:36:31-04:00
; #@! TF.GenerationSoftware,Kicad,Pcbnew,9.0.8-9.0.8~ubuntu24.04.1
; #@! TF.FileFunction,Plated,1,2,PTH
FMAT,2
METRIC
; #@! TA.AperFunction,Plated,PTH,ViaDrill
T1C0.400
; #@! TA.AperFunction,Plated,PTH,ComponentDrill
T2C0.711
; #@! TA.AperFunction,Plated,PTH,ComponentDrill
T3C0.800
; #@! TA.AperFunction,Plated,PTH,ComponentDrill
T4C1.000
; #@! TA.AperFunction,Plated,PTH,ComponentDrill
T5C1.200
; #@! TA.AperFunction,Plated,PTH,ComponentDrill
T6C1.270
; #@! TA.AperFunction,Plated,PTH,ComponentDrill
T7C1.300
; #@! TA.AperFunction,Plated,PTH,ComponentDrill
T8C1.600
; #@! TA.AperFunction,Plated,PTH,ComponentDrill
T9C1.700
; #@! TA.AperFunction,Plated,PTH,ComponentDrill
T10C1.778
; #@! TA.AperFunction,Plated,PTH,ComponentDrill
T11C2.500
; #@! TA.AperFunction,Plated,PTH,ComponentDrill
T12C3.600
; #@! TA.AperFunction,Plated,PTH,ComponentDrill
T13C3.810
; #@! TA.AperFunction,Plated,PTH,ComponentDrill
T14C5.080
; #@! TA.AperFunction,Plated,PTH,ComponentDrill
T15C5.156
; #@! TA.AperFunction,Plated,PTH,ComponentDrill
T16C6.350
; #@! TA.AperFunction,Plated,PTH,ComponentDrill
T17C10.000
%
G90
G05
T1
X98.425Y-205.74
X102.87Y-202.565
X187.96Y-197.485
X227.965Y-257.81
X231.14Y-254.0
T2
X51.054Y-268.986
X53.594Y-268.986
T3
X189.484Y-201.93
X189.484Y-203.93
X244.221Y-215.646
X244.221Y-220.646
X419.1Y-86.36
X421.64Y-111.76
X423.64Y-111.76
X424.1Y-86.36
T4
X133.35Y-218.22
X133.35Y-236.22
X171.45Y-30.48
X171.45Y-33.02
X173.99Y-30.48
X173.99Y-33.02
X176.53Y-30.48
X176.53Y-33.02
X220.98Y-218.44
X220.98Y-236.44
X327.66Y-30.48
X327.66Y-33.02
X330.2Y-30.48
X330.2Y-33.02
X332.74Y-30.48
X332.74Y-33.02
X426.487Y-245.708
X426.487Y-260.858
X444.487Y-245.708
X444.487Y-260.858
T5
X18.796Y-196.206
X18.796Y-251.206
X52.07Y-195.58
X52.07Y-203.08
X53.848Y-260.096
X69.088Y-260.096
X121.031Y-214.376
X121.031Y-227.076
X121.666Y-59.436
X121.666Y-114.436
X121.666Y-138.296
X121.666Y-145.796
X149.606Y-213.106
X149.606Y-228.346
X160.401Y-150.876
X160.401Y-166.116
X160.401Y-173.736
X160.401Y-188.976
X160.528Y-197.104
X160.528Y-212.344
X171.704Y-261.62
X171.831Y-173.736
X171.831Y-186.436
X175.086Y-159.131
X175.26Y-198.882
X175.26Y-203.882
X179.324Y-215.138
X180.086Y-159.131
X182.626Y-173.736
X182.626Y-188.976
X184.404Y-261.62
X192.786Y-173.736
X192.786Y-186.436
X194.564Y-215.138
X204.216Y-213.106
X204.216Y-228.346
X235.331Y-211.836
X235.331Y-224.536
X266.7Y-58.42
X266.7Y-113.42
X266.7Y-138.55
X266.7Y-146.05
X418.427Y-34.188
X418.427Y-44.938
X418.427Y-50.088
X421.64Y-132.08
X424.18Y-152.4
X424.18Y-185.42
X426.72Y-167.64
X426.72Y-198.12
X431.127Y-44.938
X431.127Y-50.088
X433.667Y-34.188
X436.88Y-132.08
X437.519Y-108.278
X439.42Y-152.4
X439.42Y-185.42
X439.42Y-198.12
X441.96Y-167.64
X442.519Y-108.278
X445.77Y-21.59
X455.537Y-131.198
X457.2Y-101.6
X457.2Y-147.32
X457.2Y-198.12
X458.47Y-21.59
X462.2Y-101.6
X469.9Y-147.32
X470.777Y-131.198
X472.44Y-198.12
T6
X96.52Y-7.62
X96.52Y-25.4
X96.52Y-40.64
T8
X42.512Y-17.272
X51.562Y-17.272
X60.612Y-17.272
X75.946Y-275.844
X78.486Y-258.064
X78.486Y-260.604
X78.486Y-263.144
X81.026Y-275.844
X207.01Y-5.08
X209.55Y-17.78
X209.55Y-20.32
X209.55Y-22.86
X212.09Y-5.08
X360.68Y-5.08
X363.22Y-17.78
X363.22Y-20.32
X363.22Y-22.86
X365.76Y-5.08
T9
X31.196Y-42.77
X35.156Y-42.77
X39.116Y-42.77
T10
X25.4Y-63.881
X27.94Y-175.641
X31.75Y-63.881
X34.29Y-175.641
X38.1Y-63.881
X50.8Y-63.881
X62.23Y-63.881
X63.5Y-175.641
X68.58Y-63.881
X69.85Y-175.641
X74.93Y-63.881
X76.2Y-175.641
X162.56Y-133.096
X165.1Y-49.276
X170.18Y-133.096
X172.72Y-49.276
X177.8Y-133.096
X182.88Y-49.276
X185.42Y-133.096
X190.5Y-49.276
X193.04Y-133.096
X314.96Y-133.096
X317.5Y-49.276
X322.58Y-133.096
X325.12Y-49.276
X330.2Y-133.096
X335.28Y-49.276
X337.82Y-133.096
X342.9Y-49.276
X345.44Y-133.096
T11
X38.181Y-237.236
X41.989Y-228.044
X41.989Y-246.428
X51.181Y-224.236
X51.181Y-250.236
X60.373Y-228.044
X60.373Y-246.428
X64.181Y-237.236
X120.35Y-186.436
X124.158Y-177.244
X124.158Y-195.628
X133.35Y-173.436
X133.35Y-199.436
X142.542Y-177.244
X142.542Y-195.628
X146.35Y-186.436
X164.8Y-237.236
X168.608Y-228.044
X168.608Y-246.428
X177.8Y-224.236
X177.8Y-250.236
X186.992Y-228.044
X186.992Y-246.428
X190.8Y-237.236
X209.25Y-186.436
X213.058Y-177.244
X213.058Y-195.628
X222.25Y-173.436
X222.25Y-199.436
X231.442Y-177.244
X231.442Y-195.628
X235.25Y-186.436
X272.75Y-186.436
X276.558Y-177.244
X276.558Y-195.628
X285.75Y-173.436
X285.75Y-199.436
X294.942Y-177.244
X294.942Y-195.628
X298.75Y-186.436
X317.2Y-237.236
X321.008Y-228.044
X321.008Y-246.428
X330.2Y-224.236
X330.2Y-250.236
X339.392Y-228.044
X339.392Y-246.428
X343.2Y-237.236
X360.38Y-186.436
X364.188Y-177.244
X364.188Y-195.628
X373.38Y-173.436
X373.38Y-199.436
X382.572Y-177.244
X382.572Y-195.628
X386.38Y-186.436
T12
X31.562Y-7.572
X71.562Y-7.572
T13
X5.08Y-5.08
X5.08Y-274.32
X401.32Y-5.08
X401.32Y-274.32
T14
X166.37Y-10.668
X185.42Y-10.668
X320.04Y-10.16
X339.09Y-10.16
T15
X19.05Y-85.623
X19.05Y-153.899
X82.55Y-85.623
X82.55Y-153.899
X152.4Y-70.028
X152.4Y-112.344
X203.2Y-70.028
X203.2Y-112.344
X304.8Y-70.028
X304.8Y-112.344
X355.6Y-70.028
X355.6Y-112.344
T17
X51.181Y-237.236
X133.35Y-186.436
X177.8Y-237.236
X222.25Y-186.436
X285.75Y-186.436
X330.2Y-237.236
X373.38Y-186.436
T4
G00X174.618Y-274.816
M15
G01X174.618Y-273.316
M16
G05
G00X182.118Y-274.816
M15
G01X182.118Y-273.316
M16
G05
G00X448.43Y-41.644
M15
G01X448.43Y-40.144
M16
G05
G00X455.93Y-41.644
M15
G01X455.93Y-40.144
M16
G05
T7
G00X178.968Y-270.366
M15
G01X177.768Y-270.366
M16
G05
G00X452.78Y-37.194
M15
G01X451.58Y-37.194
M16
G05
T16
G00X57.785Y-74.041
M15
G01X43.815Y-74.041
M16
G05
G00X57.785Y-165.481
M15
G01X43.815Y-165.481
M16
G05
G00X184.785Y-56.896
M15
G01X170.815Y-56.896
M16
G05
G00X184.785Y-125.476
M15
G01X170.815Y-125.476
M16
G05
G00X337.185Y-56.896
M15
G01X323.215Y-56.896
M16
G05
G00X337.185Y-125.476
M15
G01X323.215Y-125.476
M16
G05
M30
